Coordinates
version=1
nRows=11
nColumns=36
inDegrees=yes

Units are S.I. units (second, meters, Newtons, ...)
If the header above contains a line with 'inDegrees', this indicates whether rotational values are in degrees (yes) or radians (no).

endheader
time	pelvis_tilt	pelvis_list	pelvis_rotation	pelvis_tx	pelvis_ty	pelvis_tz	hip_flexion_r	hip_adduction_r	hip_rotation_r	knee_angle_r	knee_angle_r_beta	ankle_angle_r	subtalar_angle_r	mtp_angle_r	hip_flexion_l	hip_adduction_l	hip_rotation_l	knee_angle_l	knee_angle_l_beta	ankle_angle_l	subtalar_angle_l	mtp_angle_l	lumbar_extension	lumbar_bending	lumbar_rotation	arm_flex_r	arm_add_r	arm_rot_r	elbow_flex_r	pro_sup_r	arm_flex_l	arm_add_l	arm_rot_l	elbow_flex_l	pro_sup_l
     44.51666670	     -5.59297203	     -7.56300173	     -1.07117444	      0.84476190	      1.02777404	      0.85389257	     23.13787612	      8.41767170	     -7.14280972	     16.06416252	      0.28037253	      4.51799441	     -5.00703964	     -7.49999987	      6.05886604	    -11.02402768	     -5.34041071	     43.40100563	      0.75749045	      0.09025742	      0.23612124	     -7.49999987	     -1.91988668	     11.79525460	      0.29922983	      3.53744143	    -11.39753421	     -2.77387929	     14.25905311	     76.39991794	      5.26377695	     -4.12316800	     -5.54211640	     21.97528938	     72.19992907
     44.53333330	     -5.90558848	     -8.63234552	     -0.72991249	      0.84728753	      1.02696511	      0.85664695	     22.74803626	      9.66778796	     -7.89630041	     16.68381680	      0.29118754	      5.57624427	     -5.76063545	     -7.49999987	      8.65718446	    -12.64707154	     -3.80940876	     47.74985701	      0.83339222	     -3.87056451	     -0.61568986	     -7.49999987	     -1.17428467	     12.71083740	      0.33114746	      3.49804719	    -11.48047946	     -2.87881922	     14.53229002	     76.47888114	      4.63775662	     -3.91624145	     -5.76728730	     20.32212115	     72.38111016
     44.55000000	     -6.40918996	     -9.40692663	     -0.52642216	      0.84948723	      1.02609710	      0.85738276	     22.48680323	     10.59571212	     -8.65077075	     17.14726444	      0.29927622	      6.77081810	     -5.98723100	     -7.49999987	     11.49342522	    -13.84907700	     -2.46488215	     51.77051326	      0.90356591	     -6.37176841	     -1.52725110	     -7.49999987	     -0.15989776	     13.29657530	      0.50209448	      3.20962182	    -11.54291096	     -3.12962850	     14.94278090	     76.42966103	      4.01939578	     -3.71343136	     -5.98460243	     18.67813970	     72.65976788
     44.56666670	     -6.14173874	     -9.75999136	     -0.42216692	      0.85029999	      1.02683319	      0.85924224	     21.20889055	     11.21231591	     -8.76010537	     17.18104939	      0.29986588	      7.76752364	     -6.20176108	     -7.49999987	     13.39456204	    -14.54015153	     -1.46027619	     55.13260625	      0.96224550	     -7.40893624	     -2.50294449	     -7.49999987	     -0.43510427	     13.34458555	      0.95962926	      3.29859307	    -11.48727384	     -3.14858628	     15.18752608	     76.38437589	      3.29661102	     -3.70677612	     -6.02358719	     18.21295845	     72.65752321
     44.58333330	     -6.81168798	    -10.41153347	      0.17205338	      0.85135132	      1.02571141	      0.86127039	     20.78522922	     11.77252377	    -10.07804177	     16.81524053	      0.29348131	      8.75051627	     -5.25101659	     -7.49999987	     16.58027910	    -15.20518933	      0.44403295	     58.15466397	      1.01499036	     -7.59155285	     -4.62119755	     -7.49999987	      0.95661835	     13.98592679	      0.60747475	      2.73237077	    -11.65196764	     -3.51166986	     16.02902688	     76.03986558	      2.64068031	     -3.42096421	     -5.91650466	     16.33850156	     72.75901781
     44.60000000	     -7.05821186	    -10.63268139	      0.49305236	      0.85177627	      1.02491363	      0.86330997	     19.86961276	     12.07840281	    -10.60552725	     16.38086560	      0.28590004	      9.71268864	     -4.52310356	     -7.49999987	     19.13878543	    -15.50436927	      1.76846607	     60.57688755	      1.05726614	     -6.95957459	     -6.56039918	     -7.49999987	      1.49530562	     13.99136609	      0.96348632	      2.32475255	    -11.65453690	     -4.06683382	     16.67647840	     75.42364702	      2.04483280	     -3.34465641	     -5.49605249	     15.42488077	     72.80755263
     44.61666670	     -6.95996064	    -10.66486434	      0.78537857	      0.85179559	      1.02513449	      0.86381424	     18.57481947	     12.20813650	    -10.97470539	     15.90008572	      0.27750885	     10.65935036	     -3.65768046	     -7.49999987	     21.28620688	    -15.57309086	      2.89479306	     62.54370191	      1.09159352	     -5.99469290	     -8.53787408	     -7.49999987	      1.42176629	     13.86161924	      1.31557395	      2.16680130	    -11.69082722	     -4.05684448	     17.58733682	     73.04058585	      1.45803715	     -3.29799000	     -4.83185601	     14.88778978	     71.10882676
     44.63333330	     -6.76068084	    -10.49967160	      0.97207611	      0.85167632	      1.02731420	      0.86382127	     17.19550524	     12.15758627	    -11.21262375	     15.48368515	      0.27024129	     11.56020633	     -2.82361985	     -7.49999987	     23.26455422	    -15.39594735	      3.79058084	     64.14276704	      1.11950248	     -4.91030493	    -10.36630247	     -7.49999987	      1.13871431	     13.58560977	      1.71084570	      2.19355208	    -11.77751477	     -3.98650240	     18.45109985	     71.59622240	      0.86878389	     -3.25449767	     -4.35905473	     14.57217201	     69.93406224
     44.65000000	     -6.28790757	    -10.14506391	      1.03442022	      0.85156831	      1.03059690	      0.86423812	     15.56142442	     11.96095695	    -11.27484166	     15.11778045	      0.26385504	     12.41954114	     -2.07228303	     -7.49999987	     24.74783726	    -15.02305746	      4.35570232	     65.37185776	      1.14095416	     -3.93456154	    -11.88024137	     -7.49999987	      0.42035463	     13.16225793	      2.20643303	      2.35156222	    -11.90917147	     -3.88017285	     19.45951880	     70.59313708	      0.30179491	     -3.28352962	     -3.89589070	     14.47942387	     69.01393699
     44.66666670	     -5.62960901	     -9.61705702	      1.06886393	      0.85096696	      1.03382967	      0.86527683	     13.73957760	     11.61545192	    -11.19153812	     14.63782228	      0.25547819	     13.11222256	     -1.60567660	     -7.49999987	     25.69096144	    -14.46547318	      4.60926952	     65.93129926	      1.15071825	     -2.99045877	    -12.94827487	     -7.49999987	     -0.54826687	     12.58396559	      2.75988361	      2.54966079	    -12.07196726	     -3.83116695	     20.39068176	     70.02237104	     -0.24043219	     -3.37974493	     -3.52714421	     14.54458692	     68.30095216
     44.68333330	     -4.93549788	     -9.01094611	      1.06769598	      0.84924870	      1.03630117	      0.86708109	     11.90782274	     11.20488638	    -11.03980996	     14.02761141	      0.24482801	     13.57885337	     -1.13765658	     -7.49999987	     26.26941893	    -13.87610104	      4.55884918	     65.85462314	      1.14938000	     -1.98045416	    -13.60597817	     -7.49999987	     -1.59822625	     11.88213529	      3.35155424	      2.80216071	    -12.18157198	     -3.64439906	     21.29337456	     69.44208641	     -0.75070887	     -3.57597549	     -3.08130120	     14.74383825	     67.40329202
